<svg xmlns="http://www.w3.org/2000/svg" viewBox="0 0 419.53 95.83"><defs><style>.cls-1{fill:#2699d6;}.cls-2{fill:#1f2662;}</style></defs><g id="Capa_2" data-name="Capa 2"><g id="Capa_1-2" data-name="Capa 1"><path class="cls-1" d="M84.22,66.53A40.8,40.8,0,1,1,84.55,30a23.44,23.44,0,0,1,6.14-3.59,47.9,47.9,0,1,0-.38,43.88,23.77,23.77,0,0,1-6.09-3.71"/><path class="cls-2" d="M107.13,44.73c-.71-3.54-3.23-6.06-7.58-6.06-4.14,0-7.08,2.12-8.09,6.06Zm-6.77,13.35a13,13,0,0,0,9-3.34l6.06,6.07c-3.13,3.34-7.68,5.76-14.86,5.76-12,0-19.71-7.68-19.71-18.2s8.18-18.2,18.7-18.2c12.13,0,19,9.61,18.2,21.64H91.36c1,3.84,3.94,6.27,9,6.27"/><path class="cls-2" d="M209.08,48.37c0-5.56-3.24-9.6-8.49-9.6s-8.5,4-8.5,9.6,3.24,9.61,8.5,9.61,8.49-4,8.49-9.61m-27.4,0c0-10.51,8.29-18.2,18.91-18.2s18.9,7.69,18.9,18.2-8.29,18.2-18.9,18.2-18.91-7.68-18.91-18.2"/><path class="cls-2" d="M265.83,48.37c0-5.66-2.94-9.3-8.09-9.3s-8.29,3.64-8.29,9.3,3.13,9.31,8.29,9.31,8.09-3.64,8.09-9.31m-26.8,0c0-10.51,7.08-18.2,16.07-18.2,5.27,0,8.6,1.82,10.52,4.86v-4h10.12V65.67H265.62v-4c-1.92,3-5.25,4.85-10.52,4.85-9,0-16.07-7.68-16.07-18.2"/><path class="cls-2" d="M19.49,31.08a16,16,0,0,1,2.18,8V65.66H31.79V47.06c0-5.16,2.22-7.79,6.77-7.79,4.25,0,5.57,2.33,5.57,6.27V65.66h10.1V47.06c0-5.16,2.23-7.79,6.78-7.79,4.25,0,5.56,2.33,5.56,6.27V65.66H76.69V44.53c0-8.69-4.86-14.36-12.85-14.36C58.28,30.17,54.23,32,51.3,36c-1.91-3.83-5.15-5.86-9.8-5.86-4.25,0-7.59,1.52-9.71,4.86v-4H19.49Z"/><path class="cls-2" d="M139.9,57.68c-5.15,0-8.49-3.64-8.49-9.31s3.34-9.3,8.49-9.3,8.3,3.64,8.3,9.3-3.14,9.31-8.3,9.31M148,11.86h-2.18a16,16,0,0,1,2.17,8V35c-1.92-3-5.46-4.86-10.72-4.86-9,0-16.27,7.69-16.27,18.2s7.28,18.2,16.27,18.2c5.26,0,8.8-1.82,10.72-4.85v4H158.1V11.86Z"/><path class="cls-2" d="M171.35,24.6A6.37,6.37,0,1,0,165,18.23a6.34,6.34,0,0,0,6.36,6.37"/><path class="cls-2" d="M166.32,31.08h-2.19a16.07,16.07,0,0,1,2.17,7.81V65.66h10.11V31.08Z"/><path class="cls-2" d="M224.38,11.86h-2.19a16.13,16.13,0,0,1,2.17,7.71v46.1h10.11V11.86Z"/><path class="cls-2" d="M304.25,30.17c-4.85,0-8.59,1.62-10.82,5.36V31.08h-12.3a16.13,16.13,0,0,1,2.19,8V65.66h10.11V47.06c0-5.16,2.73-7.78,7.59-7.78,4.14,0,6.17,2.32,6.17,6.16V65.66H317.3V44.73c0-9.2-5.36-14.56-13.05-14.56"/><path class="cls-2" d="M344.14,31.08a16.12,16.12,0,0,1,2.18,8h0V49.89c0,5.26-1.93,7.89-6.58,7.89s-6.57-2.63-6.57-7.89V31.08h-12.3a16.12,16.12,0,0,1,2.18,8V50.19c0,10.32,5.56,16.38,16.28,16.38s17.08-6.06,17.08-16.38V31.08H344.14Z"/><path class="cls-2" d="M362.34,31.08a16.14,16.14,0,0,1,2.17,8V65.66h10.11V47.06c0-5.16,2.23-7.79,6.78-7.79,4.24,0,5.56,2.33,5.56,6.27V65.66h10.11V47.06c0-5.16,2.23-7.79,6.77-7.79,4.25,0,5.57,2.33,5.57,6.27V65.66h10.11V44.53c0-8.69-4.86-14.36-12.84-14.36-5.57,0-9.61,1.82-12.54,5.86-1.92-3.83-5.16-5.86-9.81-5.86-4.24,0-7.58,1.52-9.71,4.86v-4H362.34Z"/><path class="cls-2" d="M346.7,18.58c0,2.75-2.15,5-5.86,5h-6.38V9a4.26,4.26,0,0,0-.81-2.5H340c3.37,0,5.25,2.15,5.25,4.57A3.59,3.59,0,0,1,343.61,14,5,5,0,0,1,346.7,18.58ZM340,13.23a2,2,0,0,0,2.18-1.89A1.93,1.93,0,0,0,340,9.46h-2.42v3.77Zm.7,7.4c1.78,0,2.94-.94,2.94-2.31S342.42,16,340.7,16h-3.12v4.6Z"/><path class="cls-2" d="M352.9,18.94,351,23.59H347.6L354,8.6a1.87,1.87,0,0,0-.24-2.1h3.8l7.27,17.09h-3.37l-1.91-4.65Zm3.37-8.13-2.18,5.27h4.33Z"/><path class="cls-2" d="M378.83,23.59l-9.58-11.41V23.59h-3.12V9a4.26,4.26,0,0,0-.81-2.5h3l9.59,11.44V9a4.26,4.26,0,0,0-.81-2.5H381V23.59Z"/><path class="cls-2" d="M399.25,21.25a9.36,9.36,0,0,1-6.73,2.66,8.87,8.87,0,1,1,0-17.73,9.74,9.74,0,0,1,6.38,2.45l-2.1,3.23a3.36,3.36,0,0,0-1.27-1.7,5.47,5.47,0,0,0-3-.92,5.81,5.81,0,1,0,0,11.61,6.29,6.29,0,0,0,4.79-2.29Z"/><path class="cls-2" d="M418.58,15A9.28,9.28,0,0,1,400,15a9.28,9.28,0,0,1,18.54,0Zm-15.31,0a6,6,0,1,0,6.05-5.79A5.88,5.88,0,0,0,403.27,15Z"/></g></g></svg>